HIERARCHY
ROOT Hips
{
	OFFSET 0.00000 0.00000 0.00000
	CHANNELS 6 Xposition Yposition Zposition Yrotation Zrotation Xrotation 
	JOINT Lumbar
	{
		OFFSET 0 0 0
		CHANNELS 3 Zrotation Xrotation Yrotation
		JOINT Neck
		{
			OFFSET 0.00 0.2701 0.00
			CHANNELS 3 Zrotation Xrotation Yrotation
			End Site
			{
				OFFSET 0.00 0.1379 0.00
			}
		}
		JOINT RightShoulder
		{
			OFFSET 0.0119 0.2289 0.1181
			CHANNELS 3 Zrotation Xrotation Yrotation
			JOINT RightElbow
			{
				OFFSET 0.00 -0.1475 0.00
				CHANNELS 2 Zrotation Yrotation
				JOINT RightWrist
				{
					OFFSET 0.00 -0.1605 0.00
					CHANNELS 2 Zrotation Xrotation
					End Site
					{
						OFFSET 0.0040 -0.1068 0.0006
					}
				}
			}
		}
		JOINT LeftShoulder
		{
			OFFSET 0.0119 0.2289 -0.1181
			CHANNELS 3 Zrotation Xrotation Yrotation
			JOINT LeftElbow
			{
				OFFSET 0.00 -0.1475 0.00
				CHANNELS 2 Zrotation Yrotation
				JOINT LeftWrist
				{
					OFFSET 0.00 -0.1605 0.00
					CHANNELS 2 Zrotation Xrotation
					End Site
					{
						OFFSET 0.0040 -0.1068 -0.0006
					}
				}
			}
		}
	}
	JOINT RightHip
	{
		OFFSET 0.0316 -0.0424 0.0458
		CHANNELS 3 Zrotation Xrotation Yrotation
		JOINT RightKnee
		{
			OFFSET 0.00 -0.2438 0.00
			CHANNELS 1 Zrotation
			JOINT RightAnkle
			{
				OFFSET 0.00 -0.2449 0.00
				CHANNELS 3 Zrotation Xrotation Yrotation
				End Site
				{
					OFFSET 0.1237 -0.0542 0.0051
				}
			}
		}
	}
	JOINT LeftHip
	{
		OFFSET 0.0316 -0.0424 -0.0458
		CHANNELS 3 Zrotation Xrotation Yrotation
		JOINT LeftKnee
		{
			OFFSET 0.00 -0.2438 0.00
			CHANNELS 1 Zrotation
			JOINT LeftAnkle
			{
				OFFSET 0.00 -0.2449 0.00
				CHANNELS 3 Zrotation Xrotation Yrotation
				End Site
				{
					OFFSET 0.1237 -0.0542 -0.0051
				}
			}
		}
	}
}
MOTION
Frames: 19
Frame Time: 0.02
0.36523 0.03188 0.05789 184.64451 0 -0.91519 61.8101 4.15544 20.31623 -65.50537 35.75516 2.25751 -5.38519 -13.53347 -34.59655 132.15579 98.29667 -41.55476 -4.72652 1.07094 -4.3199 4.55917 121.56828 -94.79939 -50.37352 4.22008 120.0041 12.63306 -27.35667 -68.05293 -25.20976 -2.53688 6.43398 92.0896 -9.70255 -16.17523 -11.38359 -27.26799 1.85725 -1.61872
0.36537 0.03198 0.05804 184.61998 0 -1.0286 61.9769 3.70731 20.58604 -65.50641 35.75594 1.77249 -5.01675 -13.85258 -34.15596 132.22892 97.15515 -39.57376 -4.65742 1.08599 -4.17436 4.54343 122.28719 -93.12349 -49.91145 4.07093 119.8499 12.63315 -27.43593 -67.8518 -25.37438 -2.54102 6.31996 92.10288 -9.68554 -16.34465 -11.44904 -27.14269 1.81133 -1.39749
0.3655 0.0321 0.05812 184.60792 0 -1.10813 62.1511 3.20552 20.96973 -65.50765 35.75588 1.23068 -4.53929 -14.13619 -33.53932 132.15585 96.52934 -38.07223 -4.6409 1.21001 -3.90854 4.44865 122.93519 -91.41392 -49.61719 3.91872 119.6987 12.63433 -27.52908 -67.60163 -25.60468 -2.54703 6.22351 92.13444 -9.67449 -16.52419 -11.55869 -26.96178 1.74543 -1.07355
0.36564 0.0322 0.05824 184.5893 0 -1.20071 62.32216 2.72881 21.31871 -65.51363 35.77099 0.71822 -4.10941 -14.43614 -33.00988 132.16377 95.63934 -36.35766 -4.5918 1.30089 -3.70029 4.38645 123.59569 -89.72601 -49.25281 3.76849 119.54805 12.63506 -27.61376 -67.37857 -25.79951 -2.55183 6.11947 92.15628 -9.65834 -16.68411 -11.64413 -26.80877 1.68967 -0.80543
0.36577 0.03232 0.05834 184.57523 0 -1.30265 62.49288 2.24802 21.59914 -65.50025 35.72692 0.18845 -3.68673 -14.73447 -32.4534 132.11673 94.84676 -34.59867 -4.57532 1.32348 -3.48151 4.34321 124.3402 -88.00746 -48.85429 3.61554 119.38835 12.63563 -27.70641 -67.13385 -26.01825 -2.55842 6.01378 92.18295 -9.65175 -16.90328 -11.74439 -26.64462 1.62929 -0.50017
0.36591 0.03242 0.05846 184.5546 0 -1.37778 62.66625 1.76332 22.04572 -65.52633 35.80309 -0.31791 -3.22411 -15.02786 -31.91059 132.14554 93.99458 -33.0505 -4.50745 1.51223 -3.25575 4.24119 124.89332 -86.34269 -48.57005 3.46729 119.24849 12.63674 -27.78605 -66.92306 -26.20186 -2.56135 5.91481 92.20417 -9.62726 -17.00467 -11.82526 -26.49077 1.57398 -0.24719
0.36606 0.03246 0.05865 184.50955 0 -1.38046 62.83985 1.28264 22.95291 -65.66778 36.23107 -0.74504 -2.67097 -15.31823 -31.4428 132.43705 92.73176 -32.02838 -4.25418 2.15331 -3.03622 3.97967 124.92711 -84.88035 -48.55845 3.33706 119.16401 12.63949 -27.82823 -66.81818 -26.28348 -2.55731 5.84119 92.20792 -9.54662 -16.75818 -11.84197 -26.37536 1.53591 -0.16506
0.36622 0.03249 0.05885 184.45778 0 -1.35837 63.01655 0.79999 24.018 -65.84769 36.77622 -1.14655 -2.08251 -15.6045 -30.99514 132.80603 91.41739 -31.19612 -3.95355 2.95416 -2.8142 3.66403 124.77257 -83.46769 -48.65745 3.21111 119.09929 12.64266 -27.85684 -66.7492 -26.32581 -2.54894 5.77191 92.20542 -9.44861 -16.39689 -11.83799 -26.27281 1.5039 -0.13862
0.36637 0.03254 0.05904 184.41125 0 -1.35225 63.19529 0.31707 24.99092 -66.00571 37.25466 -1.55978 -1.51511 -15.89166 -30.54185 133.12728 90.20587 -30.23909 -3.69446 3.66888 -2.59568 3.38291 124.70874 -82.00112 -48.70832 3.08027 119.02485 12.64535 -27.89039 -66.66389 -26.37864 -2.54012 5.69336 92.20455 -9.36214 -16.10177 -11.84367 -26.16677 1.47024 -0.08565
0.36654 0.03254 0.05926 184.35652 0 -1.32584 63.36031 -0.16373 26.05293 -66.18234 37.78993 -1.97427 -0.92374 -16.18219 -30.06864 133.49615 88.6709 -29.4546 -3.35146 4.44479 -2.36328 3.05667 124.61873 -80.65802 -48.75633 2.96111 118.95373 12.64926 -27.92883 -66.57719 -26.46364 -2.54128 5.64575 92.20914 -9.26097 -15.74797 -11.84962 -26.04911 1.43138 -0.03437
0.36668 0.03264 0.05941 184.31638 0 -1.33526 63.55386 -0.6476 26.96672 -66.32934 38.23468 -2.37985 -0.37409 -16.46453 -29.64271 133.78645 87.79802 -28.35739 -3.17284 5.12935 -2.16042 2.81325 124.5421 -79.0794 -48.83388 2.8195 118.88023 12.65075 -27.9546 -66.50218 -26.47292 -2.521 5.53508 92.20098 -9.18561 -15.48888 -11.8497 -25.95911 1.40487 0.00599
0.36674 0.03308 0.05935 184.32453 0 -1.45845 63.83103 -1.14847 27.42009 -66.38487 38.4 -2.76182 0.04032 -16.73068 -29.3534 133.83831 88.69955 -26.2838 -3.44555 5.52535 -2.04308 2.80653 124.52565 -76.75871 -48.97045 2.60786 118.79644 12.64515 -27.94089 -66.45443 -26.26946 -2.43907 5.24419 92.15614 -9.19111 -15.52041 -11.83688 -25.94532 1.41264 0.02815
0.36678 0.03362 0.05921 184.34641 0 -1.61706 64.13566 -1.6503 27.72028 -66.40919 38.47007 -3.13639 0.41288 -16.98766 -29.1093 133.80956 90.27672 -23.89953 -3.88696 5.82266 -1.95552 2.88663 124.5336 -74.21468 -49.13153 2.37482 118.70937 12.63715 -27.91619 -66.4168 -25.99316 -2.33635 4.89054 92.09915 -9.22219 -15.65085 -11.81893 -25.95867 1.43244 0.04095
0.36683 0.03409 0.05911 184.3577 0 -1.75396 64.42407 -2.14562 28.09863 -66.44805 38.58456 -3.51749 0.81179 -17.24572 -28.83884 133.82013 91.58859 -21.69809 -4.26111 6.16297 -1.85273 2.93045 124.54596 -71.82483 -49.27728 2.15613 118.62307 12.63043 -27.90172 -66.37229 -25.75871 -2.24548 4.56887 92.04963 -9.23802 -15.7355 -11.80426 -25.95786 1.44573 0.05873
0.36686 0.03464 0.05899 184.38692 0 -1.91386 64.72861 -2.66709 28.44781 -66.4871 38.69935 -3.88436 1.18193 -17.51758 -28.5956 133.82216 92.73233 -19.32575 -4.59699 6.51741 -1.75695 2.95786 124.48706 -69.21287 -49.44365 1.91795 118.54047 12.62291 -27.86509 -66.33847 -25.4865 -2.14437 4.2328 91.99173 -9.26846 -15.82029 -11.78497 -25.96504 1.46355 0.07195
0.36694 0.03507 0.0589 184.38243 0 -2.03435 65.00573 -3.1338 28.81764 -66.51743 38.78811 -4.27945 1.60047 -17.75739 -28.30354 133.82163 94.37529 -17.2356 -5.04942 6.81602 -1.65366 3.04211 124.58386 -67.01162 -49.57274 1.71537 118.44919 12.61651 -27.87167 -66.28454 -25.27551 -2.05962 3.91169 91.9484 -9.27488 -15.929 -11.77424 -25.96205 1.47481 0.09267
0.36718 0.03514 0.05895 184.27892 0 -2.03965 65.20271 -3.45264 29.29372 -66.53443 38.83748 -4.75426 2.17148 -17.92111 -27.88855 133.83555 97.32454 -15.97533 -5.8153 6.99019 -1.52295 3.25151 125.11383 -65.98355 -49.58083 1.61501 118.33423 12.61363 -28.00471 -66.17102 -25.25694 -2.02603 3.64801 91.94878 -9.2079 -16.08666 -11.7892 -25.92303 1.4643 0.14073
0.36749 0.0351 0.05904 184.14158 0 -2.00373 65.37052 -3.7155 29.79191 -66.54274 38.86087 -5.25789 2.79048 -18.05095 -27.41872 133.84907 100.72862 -15.01195 -6.68657 7.10915 -1.38357 3.51748 125.79868 -65.37877 -49.55218 1.5514 118.21087 12.61197 -28.18072 -66.03723 -25.30155 -2.00947 3.40149 91.96408 -9.11617 -16.2642 -11.81265 -25.87323 1.44694 0.19617
0.36776 0.03512 0.05911 184.02141 0 -1.98537 65.5504 -4.00182 30.27263 -66.5531 38.89058 -5.74841 3.3821 -18.18978 -26.95858 133.86112 103.87259 -13.93025 -7.48843 7.24964 -1.24782 3.76466 126.40782 -64.59065 -49.54771 1.4718 118.09133 12.60985 -28.33443 -65.91333 -25.31389 -1.98453 3.1465 91.97238 -9.03629 -16.42859 -11.83213 -25.82889 1.43311 0.24561
